<svg xmlns="http://www.w3.org/2000/svg" version="1.1" xmlns:xlink="http://www.w3.org/1999/xlink" xmlns:svgjs="http://svgjs.com/svgjs" width="1440" height="560" preserveAspectRatio="none" viewBox="0 0 1440 560">
    <g mask="url(&quot;#SvgjsMask1103&quot;)" fill="none">
        <rect width="1440" height="560" x="0" y="0" fill="#0e2a47"></rect>
        <path d="M59.34 47.92L87.92 64.42L87.92 97.42L59.34 113.92L30.76 97.42L30.76 64.42zM30.76 97.42L59.34 113.92L59.34 146.92L30.76 163.42L2.18 146.92L2.18 113.92zM30.76 196.42L59.34 212.92L59.34 245.92L30.76 262.42L2.18 245.92L2.18 212.92zM59.34 344.92L87.92 361.42L87.92 394.42L59.34 410.92L30.76 394.42L30.76 361.42zM30.76 493.42L59.34 509.92L59.34 542.92L30.76 559.42L2.18 542.92L2.18 509.92zM116.5 47.92L145.08 64.42L145.08 97.42L116.5 113.92L87.92 97.42L87.92 64.42zM116.5 146.92L145.08 163.42L145.08 196.42L116.5 212.92L87.92 196.42L87.92 163.42zM116.5 245.92L145.08 262.42L145.08 295.42L116.5 311.92L87.92 295.42L87.92 262.42zM87.92 394.42L116.5 410.92L116.5 443.92L87.92 460.42L59.34 443.92L59.34 410.92zM145.08 -1.58L173.66 14.92L173.66 47.92L145.08 64.42L116.5 47.92L116.5 14.92zM173.66 47.92L202.24 64.42L202.24 97.42L173.66 113.92L145.08 97.42L145.08 64.42zM145.08 97.42L173.66 113.92L173.66 146.92L145.08 163.42L116.5 146.92L116.5 113.92zM145.08 295.42L173.66 311.92L173.66 344.92L145.08 361.42L116.5 344.92L116.5 311.92zM145.08 493.42L173.66 509.92L173.66 542.92L145.08 559.42L116.5 542.92L116.5 509.92zM173.66 542.92L202.24 559.42L202.24 592.42L173.66 608.92L145.08 592.42L145.08 559.42zM230.82 146.92L259.4 163.42L259.4 196.42L230.82 212.92L202.24 196.42L202.24 163.42zM202.24 196.42L230.82 212.92L230.82 245.92L202.24 262.42L173.66 245.92L173.66 212.92zM230.82 245.92L259.4 262.42L259.4 295.42L230.82 311.92L202.24 295.42L202.24 262.42zM230.82 344.92L259.4 361.42L259.4 394.42L230.82 410.92L202.24 394.42L202.24 361.42zM202.24 394.42L230.82 410.92L230.82 443.92L202.24 460.42L173.66 443.92L173.66 410.92zM230.82 443.92L259.4 460.42L259.4 493.42L230.82 509.92L202.24 493.42L202.24 460.42zM202.24 493.42L230.82 509.92L230.82 542.92L202.24 559.42L173.66 542.92L173.66 509.92zM259.4 -1.58L287.98 14.92L287.98 47.92L259.4 64.42L230.82 47.92L230.82 14.92zM259.4 97.42L287.98 113.92L287.98 146.92L259.4 163.42L230.82 146.92L230.82 113.92zM287.98 146.92L316.56 163.42L316.56 196.42L287.98 212.92L259.4 196.42L259.4 163.42zM259.4 196.42L287.98 212.92L287.98 245.92L259.4 262.42L230.82 245.92L230.82 212.92zM287.98 344.92L316.56 361.42L316.56 394.42L287.98 410.92L259.4 394.42L259.4 361.42zM259.4 394.42L287.98 410.92L287.98 443.92L259.4 460.42L230.82 443.92L230.82 410.92zM345.14 47.92L373.72 64.42L373.72 97.42L345.14 113.92L316.56 97.42L316.56 64.42zM316.56 196.42L345.14 212.92L345.14 245.92L316.56 262.42L287.98 245.92L287.98 212.92zM316.56 295.42L345.14 311.92L345.14 344.92L316.56 361.42L287.98 344.92L287.98 311.92zM345.14 443.92L373.72 460.42L373.72 493.42L345.14 509.92L316.56 493.42L316.56 460.42zM316.56 493.42L345.14 509.92L345.14 542.92L316.56 559.42L287.98 542.92L287.98 509.92zM373.72 -1.58L402.3 14.92L402.3 47.92L373.72 64.42L345.14 47.92L345.14 14.92zM402.3 47.92L430.88 64.42L430.88 97.42L402.3 113.92L373.72 97.42L373.72 64.42zM373.72 196.42L402.3 212.92L402.3 245.92L373.72 262.42L345.14 245.92L345.14 212.92zM402.3 245.92L430.88 262.42L430.88 295.42L402.3 311.92L373.72 295.42L373.72 262.42zM373.72 295.42L402.3 311.92L402.3 344.92L373.72 361.42L345.14 344.92L345.14 311.92zM402.3 344.92L430.88 361.42L430.88 394.42L402.3 410.92L373.72 394.42L373.72 361.42zM373.72 394.42L402.3 410.92L402.3 443.92L373.72 460.42L345.14 443.92L345.14 410.92zM373.72 493.42L402.3 509.92L402.3 542.92L373.72 559.42L345.14 542.92L345.14 509.92zM402.3 542.92L430.88 559.42L430.88 592.42L402.3 608.92L373.72 592.42L373.72 559.42zM430.88 -1.58L459.45 14.92L459.45 47.92L430.88 64.42L402.3 47.92L402.3 14.92zM430.88 97.42L459.45 113.92L459.45 146.92L430.88 163.42L402.3 146.92L402.3 113.92zM459.45 245.92L488.03 262.42L488.03 295.42L459.45 311.92L430.88 295.42L430.88 262.42zM430.88 295.42L459.45 311.92L459.45 344.92L430.88 361.42L402.3 344.92L402.3 311.92zM459.45 344.92L488.03 361.42L488.03 394.42L459.45 410.92L430.88 394.42L430.88 361.42zM430.88 394.42L459.45 410.92L459.45 443.92L430.88 460.42L402.3 443.92L402.3 410.92zM459.45 443.92L488.03 460.42L488.03 493.42L459.45 509.92L430.88 493.42L430.88 460.42zM488.03 97.42L516.61 113.92L516.61 146.92L488.03 163.42L459.45 146.92L459.45 113.92zM488.03 295.42L516.61 311.92L516.61 344.92L488.03 361.42L459.45 344.92L459.45 311.92zM488.03 394.42L516.61 410.92L516.61 443.92L488.03 460.42L459.45 443.92L459.45 410.92zM516.61 443.92L545.19 460.42L545.19 493.42L516.61 509.92L488.03 493.42L488.03 460.42zM488.03 493.42L516.61 509.92L516.61 542.92L488.03 559.42L459.45 542.92L459.45 509.92zM573.77 47.92L602.35 64.42L602.35 97.42L573.77 113.92L545.19 97.42L545.19 64.42zM573.77 146.92L602.35 163.42L602.35 196.42L573.77 212.92L545.19 196.42L545.19 163.42zM545.19 295.42L573.77 311.92L573.77 344.92L545.19 361.42L516.61 344.92L516.61 311.92zM573.77 344.92L602.35 361.42L602.35 394.42L573.77 410.92L545.19 394.42L545.19 361.42zM602.35 -1.58L630.93 14.92L630.93 47.92L602.35 64.42L573.77 47.92L573.77 14.92zM630.93 344.92L659.51 361.42L659.51 394.42L630.93 410.92L602.35 394.42L602.35 361.42zM630.93 443.92L659.51 460.42L659.51 493.42L630.93 509.92L602.35 493.42L602.35 460.42zM688.09 47.92L716.67 64.42L716.67 97.42L688.09 113.92L659.51 97.42L659.51 64.42zM688.09 245.92L716.67 262.42L716.67 295.42L688.09 311.92L659.51 295.42L659.51 262.42zM688.09 443.92L716.67 460.42L716.67 493.42L688.09 509.92L659.51 493.42L659.51 460.42zM745.25 47.92L773.83 64.42L773.83 97.42L745.25 113.92L716.67 97.42L716.67 64.42zM745.25 344.92L773.83 361.42L773.83 394.42L745.25 410.92L716.67 394.42L716.67 361.42zM716.67 394.42L745.25 410.92L745.25 443.92L716.67 460.42L688.09 443.92L688.09 410.92zM716.67 493.42L745.25 509.92L745.25 542.92L716.67 559.42L688.09 542.92L688.09 509.92zM745.25 542.92L773.83 559.42L773.83 592.42L745.25 608.92L716.67 592.42L716.67 559.42zM773.83 -1.58L802.41 14.92L802.41 47.92L773.83 64.42L745.25 47.92L745.25 14.92zM802.41 47.92L830.99 64.42L830.99 97.42L802.41 113.92L773.83 97.42L773.83 64.42zM773.83 97.42L802.41 113.92L802.41 146.92L773.83 163.42L745.25 146.92L745.25 113.92zM802.41 245.92L830.99 262.42L830.99 295.42L802.41 311.92L773.83 295.42L773.83 262.42zM773.83 394.42L802.41 410.92L802.41 443.92L773.83 460.42L745.25 443.92L745.25 410.92zM802.41 542.92L830.99 559.42L830.99 592.42L802.41 608.92L773.83 592.42L773.83 559.42zM830.99 -1.58L859.57 14.92L859.57 47.92L830.99 64.42L802.41 47.92L802.41 14.92zM830.99 97.42L859.57 113.92L859.57 146.92L830.99 163.42L802.41 146.92L802.41 113.92zM859.57 146.92L888.15 163.42L888.15 196.42L859.57 212.92L830.99 196.42L830.99 163.42zM859.57 344.92L888.15 361.42L888.15 394.42L859.57 410.92L830.99 394.42L830.99 361.42zM830.99 493.42L859.57 509.92L859.57 542.92L830.99 559.42L802.41 542.92L802.41 509.92zM888.15 97.42L916.73 113.92L916.73 146.92L888.15 163.42L859.57 146.92L859.57 113.92zM916.73 146.92L945.31 163.42L945.31 196.42L916.73 212.92L888.15 196.42L888.15 163.42zM888.15 196.42L916.73 212.92L916.73 245.92L888.15 262.42L859.57 245.92L859.57 212.92zM916.73 245.92L945.31 262.42L945.31 295.42L916.73 311.92L888.15 295.42L888.15 262.42zM916.73 344.92L945.31 361.42L945.31 394.42L916.73 410.92L888.15 394.42L888.15 361.42zM916.73 542.92L945.31 559.42L945.31 592.42L916.73 608.92L888.15 592.42L888.15 559.42zM945.31 -1.58L973.89 14.92L973.89 47.92L945.31 64.42L916.73 47.92L916.73 14.92zM973.89 146.92L1002.47 163.42L1002.47 196.42L973.89 212.92L945.31 196.42L945.31 163.42zM973.89 245.92L1002.47 262.42L1002.47 295.42L973.89 311.92L945.31 295.42L945.31 262.42zM945.31 394.42L973.89 410.92L973.89 443.92L945.31 460.42L916.73 443.92L916.73 410.92zM1002.47 -1.58L1031.05 14.92L1031.05 47.92L1002.47 64.42L973.89 47.92L973.89 14.92zM1031.05 47.92L1059.63 64.42L1059.63 97.42L1031.05 113.92L1002.47 97.42L1002.47 64.42zM1031.05 146.92L1059.63 163.42L1059.63 196.42L1031.05 212.92L1002.47 196.42L1002.47 163.42zM1002.47 196.42L1031.05 212.92L1031.05 245.92L1002.47 262.42L973.89 245.92L973.89 212.92zM1031.05 245.92L1059.63 262.42L1059.63 295.42L1031.05 311.92L1002.47 295.42L1002.47 262.42zM1002.47 394.42L1031.05 410.92L1031.05 443.92L1002.47 460.42L973.89 443.92L973.89 410.92zM1002.47 493.42L1031.05 509.92L1031.05 542.92L1002.47 559.42L973.89 542.92L973.89 509.92zM1059.63 97.42L1088.21 113.92L1088.21 146.92L1059.63 163.42L1031.05 146.92L1031.05 113.92zM1088.21 146.92L1116.79 163.42L1116.79 196.42L1088.21 212.92L1059.63 196.42L1059.63 163.42zM1059.63 196.42L1088.21 212.92L1088.21 245.92L1059.63 262.42L1031.05 245.92L1031.05 212.92zM1059.63 295.42L1088.21 311.92L1088.21 344.92L1059.63 361.42L1031.05 344.92L1031.05 311.92zM1116.79 -1.58L1145.37 14.92L1145.37 47.92L1116.79 64.42L1088.21 47.92L1088.21 14.92zM1145.37 146.92L1173.95 163.42L1173.95 196.42L1145.37 212.92L1116.79 196.42L1116.79 163.42zM1145.37 245.92L1173.95 262.42L1173.95 295.42L1145.37 311.92L1116.79 295.42L1116.79 262.42zM1116.79 295.42L1145.37 311.92L1145.37 344.92L1116.79 361.42L1088.21 344.92L1088.21 311.92zM1116.79 394.42L1145.37 410.92L1145.37 443.92L1116.79 460.42L1088.21 443.92L1088.21 410.92zM1145.37 542.92L1173.95 559.42L1173.95 592.42L1145.37 608.92L1116.79 592.42L1116.79 559.42zM1202.53 47.92L1231.11 64.42L1231.11 97.42L1202.53 113.92L1173.95 97.42L1173.95 64.42zM1173.95 295.42L1202.53 311.92L1202.53 344.92L1173.95 361.42L1145.37 344.92L1145.37 311.92zM1202.53 344.92L1231.11 361.42L1231.11 394.42L1202.53 410.92L1173.95 394.42L1173.95 361.42zM1173.95 394.42L1202.53 410.92L1202.53 443.92L1173.95 460.42L1145.37 443.92L1145.37 410.92zM1173.95 493.42L1202.53 509.92L1202.53 542.92L1173.95 559.42L1145.37 542.92L1145.37 509.92zM1202.53 542.92L1231.11 559.42L1231.11 592.42L1202.53 608.92L1173.95 592.42L1173.95 559.42zM1231.11 97.42L1259.68 113.92L1259.68 146.92L1231.11 163.42L1202.53 146.92L1202.53 113.92zM1231.11 196.42L1259.68 212.92L1259.68 245.92L1231.11 262.42L1202.53 245.92L1202.53 212.92zM1259.68 344.92L1288.26 361.42L1288.26 394.42L1259.68 410.92L1231.11 394.42L1231.11 361.42zM1259.68 542.92L1288.26 559.42L1288.26 592.42L1259.68 608.92L1231.11 592.42L1231.11 559.42zM1316.84 146.92L1345.42 163.42L1345.42 196.42L1316.84 212.92L1288.26 196.42L1288.26 163.42zM1288.26 196.42L1316.84 212.92L1316.84 245.92L1288.26 262.42L1259.68 245.92L1259.68 212.92zM1316.84 245.92L1345.42 262.42L1345.42 295.42L1316.84 311.92L1288.26 295.42L1288.26 262.42zM1316.84 344.92L1345.42 361.42L1345.42 394.42L1316.84 410.92L1288.26 394.42L1288.26 361.42zM1288.26 394.42L1316.84 410.92L1316.84 443.92L1288.26 460.42L1259.68 443.92L1259.68 410.92zM1345.42 -1.58L1374 14.92L1374 47.92L1345.42 64.42L1316.84 47.92L1316.84 14.92zM1374 47.92L1402.58 64.42L1402.58 97.42L1374 113.92L1345.42 97.42L1345.42 64.42zM1345.42 295.42L1374 311.92L1374 344.92L1345.42 361.42L1316.84 344.92L1316.84 311.92zM1345.42 394.42L1374 410.92L1374 443.92L1345.42 460.42L1316.84 443.92L1316.84 410.92zM1374 443.92L1402.58 460.42L1402.58 493.42L1374 509.92L1345.42 493.42L1345.42 460.42zM1345.42 493.42L1374 509.92L1374 542.92L1345.42 559.42L1316.84 542.92L1316.84 509.92zM1402.58 -1.58L1431.16 14.92L1431.16 47.92L1402.58 64.42L1374 47.92L1374 14.92zM1431.16 146.92L1459.74 163.42L1459.74 196.42L1431.16 212.92L1402.58 196.42L1402.58 163.42zM1402.58 196.42L1431.16 212.92L1431.16 245.92L1402.58 262.42L1374 245.92L1374 212.92zM1431.16 344.92L1459.74 361.42L1459.74 394.42L1431.16 410.92L1402.58 394.42L1402.58 361.42zM1431.16 443.92L1459.74 460.42L1459.74 493.42L1431.16 509.92L1402.58 493.42L1402.58 460.42zM1402.58 493.42L1431.16 509.92L1431.16 542.92L1402.58 559.42L1374 542.92L1374 509.92zM1431.16 542.92L1459.74 559.42L1459.74 592.42L1431.16 608.92L1402.58 592.42L1402.58 559.42zM1459.74 -1.58L1488.32 14.92L1488.32 47.92L1459.74 64.42L1431.16 47.92L1431.16 14.92zM1488.32 47.92L1516.9 64.42L1516.9 97.42L1488.32 113.92L1459.74 97.42L1459.74 64.42zM1459.74 97.42L1488.32 113.92L1488.32 146.92L1459.74 163.42L1431.16 146.92L1431.16 113.92zM1459.74 295.42L1488.32 311.92L1488.32 344.92L1459.74 361.42L1431.16 344.92L1431.16 311.92zM1459.74 394.42L1488.32 410.92L1488.32 443.92L1459.74 460.42L1431.16 443.92L1431.16 410.92zM1459.74 493.42L1488.32 509.92L1488.32 542.92L1459.74 559.42L1431.16 542.92L1431.16 509.92z" stroke="#03305d" stroke-width="2"></path>
        <path d="M56.04 47.92 a3.3 3.3 0 1 0 6.6 0 a3.3 3.3 0 1 0 -6.6 0zM84.62 64.42 a3.3 3.3 0 1 0 6.6 0 a3.3 3.3 0 1 0 -6.6 0zM84.62 97.42 a3.3 3.3 0 1 0 6.6 0 a3.3 3.3 0 1 0 -6.6 0zM56.04 113.92 a3.3 3.3 0 1 0 6.6 0 a3.3 3.3 0 1 0 -6.6 0zM27.46 97.42 a3.3 3.3 0 1 0 6.6 0 a3.3 3.3 0 1 0 -6.6 0zM27.46 64.42 a3.3 3.3 0 1 0 6.6 0 a3.3 3.3 0 1 0 -6.6 0zM56.04 146.92 a3.3 3.3 0 1 0 6.6 0 a3.3 3.3 0 1 0 -6.6 0zM27.46 163.42 a3.3 3.3 0 1 0 6.6 0 a3.3 3.3 0 1 0 -6.6 0zM-1.12 146.92 a3.3 3.3 0 1 0 6.6 0 a3.3 3.3 0 1 0 -6.6 0zM-1.12 113.92 a3.3 3.3 0 1 0 6.6 0 a3.3 3.3 0 1 0 -6.6 0zM27.46 196.42 a3.3 3.3 0 1 0 6.6 0 a3.3 3.3 0 1 0 -6.6 0zM56.04 212.92 a3.3 3.3 0 1 0 6.6 0 a3.3 3.3 0 1 0 -6.6 0zM56.04 245.92 a3.3 3.3 0 1 0 6.6 0 a3.3 3.3 0 1 0 -6.6 0zM27.46 262.42 a3.3 3.3 0 1 0 6.6 0 a3.3 3.3 0 1 0 -6.6 0zM-1.12 245.92 a3.3 3.3 0 1 0 6.6 0 a3.3 3.3 0 1 0 -6.6 0zM-1.12 212.92 a3.3 3.3 0 1 0 6.6 0 a3.3 3.3 0 1 0 -6.6 0zM56.04 344.92 a3.3 3.3 0 1 0 6.6 0 a3.3 3.3 0 1 0 -6.6 0zM84.62 361.42 a3.3 3.3 0 1 0 6.6 0 a3.3 3.3 0 1 0 -6.6 0zM84.62 394.42 a3.3 3.3 0 1 0 6.6 0 a3.3 3.3 0 1 0 -6.6 0zM56.04 410.92 a3.3 3.3 0 1 0 6.6 0 a3.3 3.3 0 1 0 -6.6 0zM27.46 394.42 a3.3 3.3 0 1 0 6.6 0 a3.3 3.3 0 1 0 -6.6 0zM27.46 361.42 a3.3 3.3 0 1 0 6.6 0 a3.3 3.3 0 1 0 -6.6 0zM27.46 493.42 a3.3 3.3 0 1 0 6.6 0 a3.3 3.3 0 1 0 -6.6 0zM56.04 509.92 a3.3 3.3 0 1 0 6.6 0 a3.3 3.3 0 1 0 -6.6 0zM56.04 542.92 a3.3 3.3 0 1 0 6.6 0 a3.3 3.3 0 1 0 -6.6 0zM27.46 559.42 a3.3 3.3 0 1 0 6.6 0 a3.3 3.3 0 1 0 -6.6 0zM-1.12 542.92 a3.3 3.3 0 1 0 6.6 0 a3.3 3.3 0 1 0 -6.6 0zM-1.12 509.92 a3.3 3.3 0 1 0 6.6 0 a3.3 3.3 0 1 0 -6.6 0zM113.2 47.92 a3.3 3.3 0 1 0 6.6 0 a3.3 3.3 0 1 0 -6.6 0zM141.78 64.42 a3.3 3.3 0 1 0 6.6 0 a3.3 3.3 0 1 0 -6.6 0zM141.78 97.42 a3.3 3.3 0 1 0 6.6 0 a3.3 3.3 0 1 0 -6.6 0zM113.2 113.92 a3.3 3.3 0 1 0 6.6 0 a3.3 3.3 0 1 0 -6.6 0zM113.2 146.92 a3.3 3.3 0 1 0 6.6 0 a3.3 3.3 0 1 0 -6.6 0zM141.78 163.42 a3.3 3.3 0 1 0 6.6 0 a3.3 3.3 0 1 0 -6.6 0zM141.78 196.42 a3.3 3.3 0 1 0 6.6 0 a3.3 3.3 0 1 0 -6.6 0zM113.2 212.92 a3.3 3.3 0 1 0 6.6 0 a3.3 3.3 0 1 0 -6.6 0zM84.62 196.42 a3.3 3.3 0 1 0 6.6 0 a3.3 3.3 0 1 0 -6.6 0zM84.62 163.42 a3.3 3.3 0 1 0 6.6 0 a3.3 3.3 0 1 0 -6.6 0zM113.2 245.92 a3.3 3.3 0 1 0 6.6 0 a3.3 3.3 0 1 0 -6.6 0zM141.78 262.42 a3.3 3.3 0 1 0 6.6 0 a3.3 3.3 0 1 0 -6.6 0zM141.78 295.42 a3.3 3.3 0 1 0 6.6 0 a3.3 3.3 0 1 0 -6.6 0zM113.2 311.92 a3.3 3.3 0 1 0 6.6 0 a3.3 3.3 0 1 0 -6.6 0zM84.62 295.42 a3.3 3.3 0 1 0 6.6 0 a3.3 3.3 0 1 0 -6.6 0zM84.62 262.42 a3.3 3.3 0 1 0 6.6 0 a3.3 3.3 0 1 0 -6.6 0zM113.2 410.92 a3.3 3.3 0 1 0 6.6 0 a3.3 3.3 0 1 0 -6.6 0zM113.2 443.92 a3.3 3.3 0 1 0 6.6 0 a3.3 3.3 0 1 0 -6.6 0zM84.62 460.42 a3.3 3.3 0 1 0 6.6 0 a3.3 3.3 0 1 0 -6.6 0zM56.04 443.92 a3.3 3.3 0 1 0 6.6 0 a3.3 3.3 0 1 0 -6.6 0zM141.78 -1.58 a3.3 3.3 0 1 0 6.6 0 a3.3 3.3 0 1 0 -6.6 0zM170.36 14.92 a3.3 3.3 0 1 0 6.6 0 a3.3 3.3 0 1 0 -6.6 0zM170.36 47.92 a3.3 3.3 0 1 0 6.6 0 a3.3 3.3 0 1 0 -6.6 0zM113.2 14.92 a3.3 3.3 0 1 0 6.6 0 a3.3 3.3 0 1 0 -6.6 0zM198.94 64.42 a3.3 3.3 0 1 0 6.6 0 a3.3 3.3 0 1 0 -6.6 0zM198.94 97.42 a3.3 3.3 0 1 0 6.6 0 a3.3 3.3 0 1 0 -6.6 0zM170.36 113.92 a3.3 3.3 0 1 0 6.6 0 a3.3 3.3 0 1 0 -6.6 0zM170.36 146.92 a3.3 3.3 0 1 0 6.6 0 a3.3 3.3 0 1 0 -6.6 0zM170.36 311.92 a3.3 3.3 0 1 0 6.6 0 a3.3 3.3 0 1 0 -6.6 0zM170.36 344.92 a3.3 3.3 0 1 0 6.6 0 a3.3 3.3 0 1 0 -6.6 0zM141.78 361.42 a3.3 3.3 0 1 0 6.6 0 a3.3 3.3 0 1 0 -6.6 0zM113.2 344.92 a3.3 3.3 0 1 0 6.6 0 a3.3 3.3 0 1 0 -6.6 0zM141.78 493.42 a3.3 3.3 0 1 0 6.6 0 a3.3 3.3 0 1 0 -6.6 0zM170.36 509.92 a3.3 3.3 0 1 0 6.6 0 a3.3 3.3 0 1 0 -6.6 0zM170.36 542.92 a3.3 3.3 0 1 0 6.6 0 a3.3 3.3 0 1 0 -6.6 0zM141.78 559.42 a3.3 3.3 0 1 0 6.6 0 a3.3 3.3 0 1 0 -6.6 0zM113.2 542.92 a3.3 3.3 0 1 0 6.6 0 a3.3 3.3 0 1 0 -6.6 0zM113.2 509.92 a3.3 3.3 0 1 0 6.6 0 a3.3 3.3 0 1 0 -6.6 0zM198.94 559.42 a3.3 3.3 0 1 0 6.6 0 a3.3 3.3 0 1 0 -6.6 0zM198.94 592.42 a3.3 3.3 0 1 0 6.6 0 a3.3 3.3 0 1 0 -6.6 0zM170.36 608.92 a3.3 3.3 0 1 0 6.6 0 a3.3 3.3 0 1 0 -6.6 0zM141.78 592.42 a3.3 3.3 0 1 0 6.6 0 a3.3 3.3 0 1 0 -6.6 0zM227.52 146.92 a3.3 3.3 0 1 0 6.6 0 a3.3 3.3 0 1 0 -6.6 0zM256.1 163.42 a3.3 3.3 0 1 0 6.6 0 a3.3 3.3 0 1 0 -6.6 0zM256.1 196.42 a3.3 3.3 0 1 0 6.6 0 a3.3 3.3 0 1 0 -6.6 0zM227.52 212.92 a3.3 3.3 0 1 0 6.6 0 a3.3 3.3 0 1 0 -6.6 0zM198.94 196.42 a3.3 3.3 0 1 0 6.6 0 a3.3 3.3 0 1 0 -6.6 0zM198.94 163.42 a3.3 3.3 0 1 0 6.6 0 a3.3 3.3 0 1 0 -6.6 0zM227.52 245.92 a3.3 3.3 0 1 0 6.6 0 a3.3 3.3 0 1 0 -6.6 0zM198.94 262.42 a3.3 3.3 0 1 0 6.6 0 a3.3 3.3 0 1 0 -6.6 0zM170.36 245.92 a3.3 3.3 0 1 0 6.6 0 a3.3 3.3 0 1 0 -6.6 0zM170.36 212.92 a3.3 3.3 0 1 0 6.6 0 a3.3 3.3 0 1 0 -6.6 0zM256.1 262.42 a3.3 3.3 0 1 0 6.6 0 a3.3 3.3 0 1 0 -6.6 0zM256.1 295.42 a3.3 3.3 0 1 0 6.6 0 a3.3 3.3 0 1 0 -6.6 0zM227.52 311.92 a3.3 3.3 0 1 0 6.6 0 a3.3 3.3 0 1 0 -6.6 0zM198.94 295.42 a3.3 3.3 0 1 0 6.6 0 a3.3 3.3 0 1 0 -6.6 0zM227.52 344.92 a3.3 3.3 0 1 0 6.6 0 a3.3 3.3 0 1 0 -6.6 0zM256.1 361.42 a3.3 3.3 0 1 0 6.6 0 a3.3 3.3 0 1 0 -6.6 0zM256.1 394.42 a3.3 3.3 0 1 0 6.6 0 a3.3 3.3 0 1 0 -6.6 0zM227.52 410.92 a3.3 3.3 0 1 0 6.6 0 a3.3 3.3 0 1 0 -6.6 0zM198.94 394.42 a3.3 3.3 0 1 0 6.6 0 a3.3 3.3 0 1 0 -6.6 0zM198.94 361.42 a3.3 3.3 0 1 0 6.6 0 a3.3 3.3 0 1 0 -6.6 0zM227.52 443.92 a3.3 3.3 0 1 0 6.6 0 a3.3 3.3 0 1 0 -6.6 0zM198.94 460.42 a3.3 3.3 0 1 0 6.6 0 a3.3 3.3 0 1 0 -6.6 0zM170.36 443.92 a3.3 3.3 0 1 0 6.6 0 a3.3 3.3 0 1 0 -6.6 0zM170.36 410.92 a3.3 3.3 0 1 0 6.6 0 a3.3 3.3 0 1 0 -6.6 0zM256.1 460.42 a3.3 3.3 0 1 0 6.6 0 a3.3 3.3 0 1 0 -6.6 0zM256.1 493.42 a3.3 3.3 0 1 0 6.6 0 a3.3 3.3 0 1 0 -6.6 0zM227.52 509.92 a3.3 3.3 0 1 0 6.6 0 a3.3 3.3 0 1 0 -6.6 0zM198.94 493.42 a3.3 3.3 0 1 0 6.6 0 a3.3 3.3 0 1 0 -6.6 0zM227.52 542.92 a3.3 3.3 0 1 0 6.6 0 a3.3 3.3 0 1 0 -6.6 0zM256.1 -1.58 a3.3 3.3 0 1 0 6.6 0 a3.3 3.3 0 1 0 -6.6 0zM284.68 14.92 a3.3 3.3 0 1 0 6.6 0 a3.3 3.3 0 1 0 -6.6 0zM284.68 47.92 a3.3 3.3 0 1 0 6.6 0 a3.3 3.3 0 1 0 -6.6 0zM256.1 64.42 a3.3 3.3 0 1 0 6.6 0 a3.3 3.3 0 1 0 -6.6 0zM227.52 47.92 a3.3 3.3 0 1 0 6.6 0 a3.3 3.3 0 1 0 -6.6 0zM227.52 14.92 a3.3 3.3 0 1 0 6.6 0 a3.3 3.3 0 1 0 -6.6 0zM256.1 97.42 a3.3 3.3 0 1 0 6.6 0 a3.3 3.3 0 1 0 -6.6 0zM284.68 113.92 a3.3 3.3 0 1 0 6.6 0 a3.3 3.3 0 1 0 -6.6 0zM284.68 146.92 a3.3 3.3 0 1 0 6.6 0 a3.3 3.3 0 1 0 -6.6 0zM227.52 113.92 a3.3 3.3 0 1 0 6.6 0 a3.3 3.3 0 1 0 -6.6 0zM313.26 163.42 a3.3 3.3 0 1 0 6.6 0 a3.3 3.3 0 1 0 -6.6 0zM313.26 196.42 a3.3 3.3 0 1 0 6.6 0 a3.3 3.3 0 1 0 -6.6 0zM284.68 212.92 a3.3 3.3 0 1 0 6.6 0 a3.3 3.3 0 1 0 -6.6 0zM284.68 245.92 a3.3 3.3 0 1 0 6.6 0 a3.3 3.3 0 1 0 -6.6 0zM284.68 344.92 a3.3 3.3 0 1 0 6.6 0 a3.3 3.3 0 1 0 -6.6 0zM313.26 361.42 a3.3 3.3 0 1 0 6.6 0 a3.3 3.3 0 1 0 -6.6 0zM313.26 394.42 a3.3 3.3 0 1 0 6.6 0 a3.3 3.3 0 1 0 -6.6 0zM284.68 410.92 a3.3 3.3 0 1 0 6.6 0 a3.3 3.3 0 1 0 -6.6 0zM284.68 443.92 a3.3 3.3 0 1 0 6.6 0 a3.3 3.3 0 1 0 -6.6 0zM341.84 47.92 a3.3 3.3 0 1 0 6.6 0 a3.3 3.3 0 1 0 -6.6 0zM370.42 64.42 a3.3 3.3 0 1 0 6.6 0 a3.3 3.3 0 1 0 -6.6 0zM370.42 97.42 a3.3 3.3 0 1 0 6.6 0 a3.3 3.3 0 1 0 -6.6 0zM341.84 113.92 a3.3 3.3 0 1 0 6.6 0 a3.3 3.3 0 1 0 -6.6 0zM313.26 97.42 a3.3 3.3 0 1 0 6.6 0 a3.3 3.3 0 1 0 -6.6 0zM313.26 64.42 a3.3 3.3 0 1 0 6.6 0 a3.3 3.3 0 1 0 -6.6 0zM341.84 212.92 a3.3 3.3 0 1 0 6.6 0 a3.3 3.3 0 1 0 -6.6 0zM341.84 245.92 a3.3 3.3 0 1 0 6.6 0 a3.3 3.3 0 1 0 -6.6 0zM313.26 262.42 a3.3 3.3 0 1 0 6.6 0 a3.3 3.3 0 1 0 -6.6 0zM313.26 295.42 a3.3 3.3 0 1 0 6.6 0 a3.3 3.3 0 1 0 -6.6 0zM341.84 311.92 a3.3 3.3 0 1 0 6.6 0 a3.3 3.3 0 1 0 -6.6 0zM341.84 344.92 a3.3 3.3 0 1 0 6.6 0 a3.3 3.3 0 1 0 -6.6 0zM284.68 311.92 a3.3 3.3 0 1 0 6.6 0 a3.3 3.3 0 1 0 -6.6 0zM341.84 443.92 a3.3 3.3 0 1 0 6.6 0 a3.3 3.3 0 1 0 -6.6 0zM370.42 460.42 a3.3 3.3 0 1 0 6.6 0 a3.3 3.3 0 1 0 -6.6 0zM370.42 493.42 a3.3 3.3 0 1 0 6.6 0 a3.3 3.3 0 1 0 -6.6 0zM341.84 509.92 a3.3 3.3 0 1 0 6.6 0 a3.3 3.3 0 1 0 -6.6 0zM313.26 493.42 a3.3 3.3 0 1 0 6.6 0 a3.3 3.3 0 1 0 -6.6 0zM313.26 460.42 a3.3 3.3 0 1 0 6.6 0 a3.3 3.3 0 1 0 -6.6 0zM341.84 542.92 a3.3 3.3 0 1 0 6.6 0 a3.3 3.3 0 1 0 -6.6 0zM313.26 559.42 a3.3 3.3 0 1 0 6.6 0 a3.3 3.3 0 1 0 -6.6 0zM284.68 542.92 a3.3 3.3 0 1 0 6.6 0 a3.3 3.3 0 1 0 -6.6 0zM284.68 509.92 a3.3 3.3 0 1 0 6.6 0 a3.3 3.3 0 1 0 -6.6 0zM370.42 -1.58 a3.3 3.3 0 1 0 6.6 0 a3.3 3.3 0 1 0 -6.6 0zM399 14.92 a3.3 3.3 0 1 0 6.6 0 a3.3 3.3 0 1 0 -6.6 0zM399 47.92 a3.3 3.3 0 1 0 6.6 0 a3.3 3.3 0 1 0 -6.6 0zM341.84 14.92 a3.3 3.3 0 1 0 6.6 0 a3.3 3.3 0 1 0 -6.6 0zM427.58 64.42 a3.3 3.3 0 1 0 6.6 0 a3.3 3.3 0 1 0 -6.6 0zM427.58 97.42 a3.3 3.3 0 1 0 6.6 0 a3.3 3.3 0 1 0 -6.6 0zM399 113.92 a3.3 3.3 0 1 0 6.6 0 a3.3 3.3 0 1 0 -6.6 0zM370.42 196.42 a3.3 3.3 0 1 0 6.6 0 a3.3 3.3 0 1 0 -6.6 0zM399 212.92 a3.3 3.3 0 1 0 6.6 0 a3.3 3.3 0 1 0 -6.6 0zM399 245.92 a3.3 3.3 0 1 0 6.6 0 a3.3 3.3 0 1 0 -6.6 0zM370.42 262.42 a3.3 3.3 0 1 0 6.6 0 a3.3 3.3 0 1 0 -6.6 0zM427.58 262.42 a3.3 3.3 0 1 0 6.6 0 a3.3 3.3 0 1 0 -6.6 0zM427.58 295.42 a3.3 3.3 0 1 0 6.6 0 a3.3 3.3 0 1 0 -6.6 0zM399 311.92 a3.3 3.3 0 1 0 6.6 0 a3.3 3.3 0 1 0 -6.6 0zM370.42 295.42 a3.3 3.3 0 1 0 6.6 0 a3.3 3.3 0 1 0 -6.6 0zM399 344.92 a3.3 3.3 0 1 0 6.6 0 a3.3 3.3 0 1 0 -6.6 0zM370.42 361.42 a3.3 3.3 0 1 0 6.6 0 a3.3 3.3 0 1 0 -6.6 0zM427.58 361.42 a3.3 3.3 0 1 0 6.6 0 a3.3 3.3 0 1 0 -6.6 0zM427.58 394.42 a3.3 3.3 0 1 0 6.6 0 a3.3 3.3 0 1 0 -6.6 0zM399 410.92 a3.3 3.3 0 1 0 6.6 0 a3.3 3.3 0 1 0 -6.6 0zM370.42 394.42 a3.3 3.3 0 1 0 6.6 0 a3.3 3.3 0 1 0 -6.6 0zM399 443.92 a3.3 3.3 0 1 0 6.6 0 a3.3 3.3 0 1 0 -6.6 0zM341.84 410.92 a3.3 3.3 0 1 0 6.6 0 a3.3 3.3 0 1 0 -6.6 0zM399 509.92 a3.3 3.3 0 1 0 6.6 0 a3.3 3.3 0 1 0 -6.6 0zM399 542.92 a3.3 3.3 0 1 0 6.6 0 a3.3 3.3 0 1 0 -6.6 0zM370.42 559.42 a3.3 3.3 0 1 0 6.6 0 a3.3 3.3 0 1 0 -6.6 0zM427.58 559.42 a3.3 3.3 0 1 0 6.6 0 a3.3 3.3 0 1 0 -6.6 0zM427.58 592.42 a3.3 3.3 0 1 0 6.6 0 a3.3 3.3 0 1 0 -6.6 0zM399 608.92 a3.3 3.3 0 1 0 6.6 0 a3.3 3.3 0 1 0 -6.6 0zM370.42 592.42 a3.3 3.3 0 1 0 6.6 0 a3.3 3.3 0 1 0 -6.6 0zM427.58 -1.58 a3.3 3.3 0 1 0 6.6 0 a3.3 3.3 0 1 0 -6.6 0zM456.15 14.92 a3.3 3.3 0 1 0 6.6 0 a3.3 3.3 0 1 0 -6.6 0zM456.15 47.92 a3.3 3.3 0 1 0 6.6 0 a3.3 3.3 0 1 0 -6.6 0zM456.15 113.92 a3.3 3.3 0 1 0 6.6 0 a3.3 3.3 0 1 0 -6.6 0zM456.15 146.92 a3.3 3.3 0 1 0 6.6 0 a3.3 3.3 0 1 0 -6.6 0zM427.58 163.42 a3.3 3.3 0 1 0 6.6 0 a3.3 3.3 0 1 0 -6.6 0zM399 146.92 a3.3 3.3 0 1 0 6.6 0 a3.3 3.3 0 1 0 -6.6 0zM456.15 245.92 a3.3 3.3 0 1 0 6.6 0 a3.3 3.3 0 1 0 -6.6 0zM484.73 262.42 a3.3 3.3 0 1 0 6.6 0 a3.3 3.3 0 1 0 -6.6 0zM484.73 295.42 a3.3 3.3 0 1 0 6.6 0 a3.3 3.3 0 1 0 -6.6 0zM456.15 311.92 a3.3 3.3 0 1 0 6.6 0 a3.3 3.3 0 1 0 -6.6 0zM456.15 344.92 a3.3 3.3 0 1 0 6.6 0 a3.3 3.3 0 1 0 -6.6 0zM484.73 361.42 a3.3 3.3 0 1 0 6.6 0 a3.3 3.3 0 1 0 -6.6 0zM484.73 394.42 a3.3 3.3 0 1 0 6.6 0 a3.3 3.3 0 1 0 -6.6 0zM456.15 410.92 a3.3 3.3 0 1 0 6.6 0 a3.3 3.3 0 1 0 -6.6 0zM456.15 443.92 a3.3 3.3 0 1 0 6.6 0 a3.3 3.3 0 1 0 -6.6 0zM427.58 460.42 a3.3 3.3 0 1 0 6.6 0 a3.3 3.3 0 1 0 -6.6 0zM484.73 460.42 a3.3 3.3 0 1 0 6.6 0 a3.3 3.3 0 1 0 -6.6 0zM484.73 493.42 a3.3 3.3 0 1 0 6.6 0 a3.3 3.3 0 1 0 -6.6 0zM456.15 509.92 a3.3 3.3 0 1 0 6.6 0 a3.3 3.3 0 1 0 -6.6 0zM427.58 493.42 a3.3 3.3 0 1 0 6.6 0 a3.3 3.3 0 1 0 -6.6 0zM484.73 97.42 a3.3 3.3 0 1 0 6.6 0 a3.3 3.3 0 1 0 -6.6 0zM513.31 113.92 a3.3 3.3 0 1 0 6.6 0 a3.3 3.3 0 1 0 -6.6 0zM513.31 146.92 a3.3 3.3 0 1 0 6.6 0 a3.3 3.3 0 1 0 -6.6 0zM484.73 163.42 a3.3 3.3 0 1 0 6.6 0 a3.3 3.3 0 1 0 -6.6 0zM513.31 311.92 a3.3 3.3 0 1 0 6.6 0 a3.3 3.3 0 1 0 -6.6 0zM513.31 344.92 a3.3 3.3 0 1 0 6.6 0 a3.3 3.3 0 1 0 -6.6 0zM513.31 410.92 a3.3 3.3 0 1 0 6.6 0 a3.3 3.3 0 1 0 -6.6 0zM513.31 443.92 a3.3 3.3 0 1 0 6.6 0 a3.3 3.3 0 1 0 -6.6 0zM541.89 460.42 a3.3 3.3 0 1 0 6.6 0 a3.3 3.3 0 1 0 -6.6 0zM541.89 493.42 a3.3 3.3 0 1 0 6.6 0 a3.3 3.3 0 1 0 -6.6 0zM513.31 509.92 a3.3 3.3 0 1 0 6.6 0 a3.3 3.3 0 1 0 -6.6 0zM513.31 542.92 a3.3 3.3 0 1 0 6.6 0 a3.3 3.3 0 1 0 -6.6 0zM484.73 559.42 a3.3 3.3 0 1 0 6.6 0 a3.3 3.3 0 1 0 -6.6 0zM456.15 542.92 a3.3 3.3 0 1 0 6.6 0 a3.3 3.3 0 1 0 -6.6 0zM570.47 47.92 a3.3 3.3 0 1 0 6.6 0 a3.3 3.3 0 1 0 -6.6 0zM599.05 64.42 a3.3 3.3 0 1 0 6.6 0 a3.3 3.3 0 1 0 -6.6 0zM599.05 97.42 a3.3 3.3 0 1 0 6.6 0 a3.3 3.3 0 1 0 -6.6 0zM570.47 113.92 a3.3 3.3 0 1 0 6.6 0 a3.3 3.3 0 1 0 -6.6 0zM541.89 97.42 a3.3 3.3 0 1 0 6.6 0 a3.3 3.3 0 1 0 -6.6 0zM541.89 64.42 a3.3 3.3 0 1 0 6.6 0 a3.3 3.3 0 1 0 -6.6 0zM570.47 146.92 a3.3 3.3 0 1 0 6.6 0 a3.3 3.3 0 1 0 -6.6 0zM599.05 163.42 a3.3 3.3 0 1 0 6.6 0 a3.3 3.3 0 1 0 -6.6 0zM599.05 196.42 a3.3 3.3 0 1 0 6.6 0 a3.3 3.3 0 1 0 -6.6 0zM570.47 212.92 a3.3 3.3 0 1 0 6.6 0 a3.3 3.3 0 1 0 -6.6 0zM541.89 196.42 a3.3 3.3 0 1 0 6.6 0 a3.3 3.3 0 1 0 -6.6 0zM541.89 163.42 a3.3 3.3 0 1 0 6.6 0 a3.3 3.3 0 1 0 -6.6 0zM541.89 295.42 a3.3 3.3 0 1 0 6.6 0 a3.3 3.3 0 1 0 -6.6 0zM570.47 311.92 a3.3 3.3 0 1 0 6.6 0 a3.3 3.3 0 1 0 -6.6 0zM570.47 344.92 a3.3 3.3 0 1 0 6.6 0 a3.3 3.3 0 1 0 -6.6 0zM541.89 361.42 a3.3 3.3 0 1 0 6.6 0 a3.3 3.3 0 1 0 -6.6 0zM599.05 361.42 a3.3 3.3 0 1 0 6.6 0 a3.3 3.3 0 1 0 -6.6 0zM599.05 394.42 a3.3 3.3 0 1 0 6.6 0 a3.3 3.3 0 1 0 -6.6 0zM570.47 410.92 a3.3 3.3 0 1 0 6.6 0 a3.3 3.3 0 1 0 -6.6 0zM541.89 394.42 a3.3 3.3 0 1 0 6.6 0 a3.3 3.3 0 1 0 -6.6 0zM599.05 -1.58 a3.3 3.3 0 1 0 6.6 0 a3.3 3.3 0 1 0 -6.6 0zM627.63 14.92 a3.3 3.3 0 1 0 6.6 0 a3.3 3.3 0 1 0 -6.6 0zM627.63 47.92 a3.3 3.3 0 1 0 6.6 0 a3.3 3.3 0 1 0 -6.6 0zM570.47 14.92 a3.3 3.3 0 1 0 6.6 0 a3.3 3.3 0 1 0 -6.6 0zM627.63 344.92 a3.3 3.3 0 1 0 6.6 0 a3.3 3.3 0 1 0 -6.6 0zM656.21 361.42 a3.3 3.3 0 1 0 6.6 0 a3.3 3.3 0 1 0 -6.6 0zM656.21 394.42 a3.3 3.3 0 1 0 6.6 0 a3.3 3.3 0 1 0 -6.6 0zM627.63 410.92 a3.3 3.3 0 1 0 6.6 0 a3.3 3.3 0 1 0 -6.6 0zM627.63 443.92 a3.3 3.3 0 1 0 6.6 0 a3.3 3.3 0 1 0 -6.6 0zM656.21 460.42 a3.3 3.3 0 1 0 6.6 0 a3.3 3.3 0 1 0 -6.6 0zM656.21 493.42 a3.3 3.3 0 1 0 6.6 0 a3.3 3.3 0 1 0 -6.6 0zM627.63 509.92 a3.3 3.3 0 1 0 6.6 0 a3.3 3.3 0 1 0 -6.6 0zM599.05 493.42 a3.3 3.3 0 1 0 6.6 0 a3.3 3.3 0 1 0 -6.6 0zM599.05 460.42 a3.3 3.3 0 1 0 6.6 0 a3.3 3.3 0 1 0 -6.6 0zM684.79 47.92 a3.3 3.3 0 1 0 6.6 0 a3.3 3.3 0 1 0 -6.6 0zM713.37 64.42 a3.3 3.3 0 1 0 6.6 0 a3.3 3.3 0 1 0 -6.6 0zM713.37 97.42 a3.3 3.3 0 1 0 6.6 0 a3.3 3.3 0 1 0 -6.6 0zM684.79 113.92 a3.3 3.3 0 1 0 6.6 0 a3.3 3.3 0 1 0 -6.6 0zM656.21 97.42 a3.3 3.3 0 1 0 6.6 0 a3.3 3.3 0 1 0 -6.6 0zM656.21 64.42 a3.3 3.3 0 1 0 6.6 0 a3.3 3.3 0 1 0 -6.6 0zM684.79 245.92 a3.3 3.3 0 1 0 6.6 0 a3.3 3.3 0 1 0 -6.6 0zM713.37 262.42 a3.3 3.3 0 1 0 6.6 0 a3.3 3.3 0 1 0 -6.6 0zM713.37 295.42 a3.3 3.3 0 1 0 6.6 0 a3.3 3.3 0 1 0 -6.6 0zM684.79 311.92 a3.3 3.3 0 1 0 6.6 0 a3.3 3.3 0 1 0 -6.6 0zM656.21 295.42 a3.3 3.3 0 1 0 6.6 0 a3.3 3.3 0 1 0 -6.6 0zM656.21 262.42 a3.3 3.3 0 1 0 6.6 0 a3.3 3.3 0 1 0 -6.6 0zM684.79 443.92 a3.3 3.3 0 1 0 6.6 0 a3.3 3.3 0 1 0 -6.6 0zM713.37 460.42 a3.3 3.3 0 1 0 6.6 0 a3.3 3.3 0 1 0 -6.6 0zM713.37 493.42 a3.3 3.3 0 1 0 6.6 0 a3.3 3.3 0 1 0 -6.6 0zM684.79 509.92 a3.3 3.3 0 1 0 6.6 0 a3.3 3.3 0 1 0 -6.6 0zM741.95 47.92 a3.3 3.3 0 1 0 6.6 0 a3.3 3.3 0 1 0 -6.6 0zM770.53 64.42 a3.3 3.3 0 1 0 6.6 0 a3.3 3.3 0 1 0 -6.6 0zM770.53 97.42 a3.3 3.3 0 1 0 6.6 0 a3.3 3.3 0 1 0 -6.6 0zM741.95 113.92 a3.3 3.3 0 1 0 6.6 0 a3.3 3.3 0 1 0 -6.6 0zM741.95 344.92 a3.3 3.3 0 1 0 6.6 0 a3.3 3.3 0 1 0 -6.6 0zM770.53 361.42 a3.3 3.3 0 1 0 6.6 0 a3.3 3.3 0 1 0 -6.6 0zM770.53 394.42 a3.3 3.3 0 1 0 6.6 0 a3.3 3.3 0 1 0 -6.6 0zM741.95 410.92 a3.3 3.3 0 1 0 6.6 0 a3.3 3.3 0 1 0 -6.6 0zM713.37 394.42 a3.3 3.3 0 1 0 6.6 0 a3.3 3.3 0 1 0 -6.6 0zM713.37 361.42 a3.3 3.3 0 1 0 6.6 0 a3.3 3.3 0 1 0 -6.6 0zM741.95 443.92 a3.3 3.3 0 1 0 6.6 0 a3.3 3.3 0 1 0 -6.6 0zM684.79 410.92 a3.3 3.3 0 1 0 6.6 0 a3.3 3.3 0 1 0 -6.6 0zM741.95 509.92 a3.3 3.3 0 1 0 6.6 0 a3.3 3.3 0 1 0 -6.6 0zM741.95 542.92 a3.3 3.3 0 1 0 6.6 0 a3.3 3.3 0 1 0 -6.6 0zM713.37 559.42 a3.3 3.3 0 1 0 6.6 0 a3.3 3.3 0 1 0 -6.6 0zM684.79 542.92 a3.3 3.3 0 1 0 6.6 0 a3.3 3.3 0 1 0 -6.6 0zM770.53 559.42 a3.3 3.3 0 1 0 6.6 0 a3.3 3.3 0 1 0 -6.6 0zM770.53 592.42 a3.3 3.3 0 1 0 6.6 0 a3.3 3.3 0 1 0 -6.6 0zM741.95 608.92 a3.3 3.3 0 1 0 6.6 0 a3.3 3.3 0 1 0 -6.6 0zM713.37 592.42 a3.3 3.3 0 1 0 6.6 0 a3.3 3.3 0 1 0 -6.6 0zM770.53 -1.58 a3.3 3.3 0 1 0 6.6 0 a3.3 3.3 0 1 0 -6.6 0zM799.11 14.92 a3.3 3.3 0 1 0 6.6 0 a3.3 3.3 0 1 0 -6.6 0zM799.11 47.92 a3.3 3.3 0 1 0 6.6 0 a3.3 3.3 0 1 0 -6.6 0zM741.95 14.92 a3.3 3.3 0 1 0 6.6 0 a3.3 3.3 0 1 0 -6.6 0zM827.69 64.42 a3.3 3.3 0 1 0 6.6 0 a3.3 3.3 0 1 0 -6.6 0zM827.69 97.42 a3.3 3.3 0 1 0 6.6 0 a3.3 3.3 0 1 0 -6.6 0zM799.11 113.92 a3.3 3.3 0 1 0 6.6 0 a3.3 3.3 0 1 0 -6.6 0zM799.11 146.92 a3.3 3.3 0 1 0 6.6 0 a3.3 3.3 0 1 0 -6.6 0zM770.53 163.42 a3.3 3.3 0 1 0 6.6 0 a3.3 3.3 0 1 0 -6.6 0zM741.95 146.92 a3.3 3.3 0 1 0 6.6 0 a3.3 3.3 0 1 0 -6.6 0zM799.11 245.92 a3.3 3.3 0 1 0 6.6 0 a3.3 3.3 0 1 0 -6.6 0zM827.69 262.42 a3.3 3.3 0 1 0 6.6 0 a3.3 3.3 0 1 0 -6.6 0zM827.69 295.42 a3.3 3.3 0 1 0 6.6 0 a3.3 3.3 0 1 0 -6.6 0zM799.11 311.92 a3.3 3.3 0 1 0 6.6 0 a3.3 3.3 0 1 0 -6.6 0zM770.53 295.42 a3.3 3.3 0 1 0 6.6 0 a3.3 3.3 0 1 0 -6.6 0zM770.53 262.42 a3.3 3.3 0 1 0 6.6 0 a3.3 3.3 0 1 0 -6.6 0zM799.11 410.92 a3.3 3.3 0 1 0 6.6 0 a3.3 3.3 0 1 0 -6.6 0zM799.11 443.92 a3.3 3.3 0 1 0 6.6 0 a3.3 3.3 0 1 0 -6.6 0zM770.53 460.42 a3.3 3.3 0 1 0 6.6 0 a3.3 3.3 0 1 0 -6.6 0zM799.11 542.92 a3.3 3.3 0 1 0 6.6 0 a3.3 3.3 0 1 0 -6.6 0zM827.69 559.42 a3.3 3.3 0 1 0 6.6 0 a3.3 3.3 0 1 0 -6.6 0zM827.69 592.42 a3.3 3.3 0 1 0 6.6 0 a3.3 3.3 0 1 0 -6.6 0zM799.11 608.92 a3.3 3.3 0 1 0 6.6 0 a3.3 3.3 0 1 0 -6.6 0zM827.69 -1.58 a3.3 3.3 0 1 0 6.6 0 a3.3 3.3 0 1 0 -6.6 0zM856.27 14.92 a3.3 3.3 0 1 0 6.6 0 a3.3 3.3 0 1 0 -6.6 0zM856.27 47.92 a3.3 3.3 0 1 0 6.6 0 a3.3 3.3 0 1 0 -6.6 0zM856.27 113.92 a3.3 3.3 0 1 0 6.6 0 a3.3 3.3 0 1 0 -6.6 0zM856.27 146.92 a3.3 3.3 0 1 0 6.6 0 a3.3 3.3 0 1 0 -6.6 0zM827.69 163.42 a3.3 3.3 0 1 0 6.6 0 a3.3 3.3 0 1 0 -6.6 0zM884.85 163.42 a3.3 3.3 0 1 0 6.6 0 a3.3 3.3 0 1 0 -6.6 0zM884.85 196.42 a3.3 3.3 0 1 0 6.6 0 a3.3 3.3 0 1 0 -6.6 0zM856.27 212.92 a3.3 3.3 0 1 0 6.6 0 a3.3 3.3 0 1 0 -6.6 0zM827.69 196.42 a3.3 3.3 0 1 0 6.6 0 a3.3 3.3 0 1 0 -6.6 0zM856.27 344.92 a3.3 3.3 0 1 0 6.6 0 a3.3 3.3 0 1 0 -6.6 0zM884.85 361.42 a3.3 3.3 0 1 0 6.6 0 a3.3 3.3 0 1 0 -6.6 0zM884.85 394.42 a3.3 3.3 0 1 0 6.6 0 a3.3 3.3 0 1 0 -6.6 0zM856.27 410.92 a3.3 3.3 0 1 0 6.6 0 a3.3 3.3 0 1 0 -6.6 0zM827.69 394.42 a3.3 3.3 0 1 0 6.6 0 a3.3 3.3 0 1 0 -6.6 0zM827.69 361.42 a3.3 3.3 0 1 0 6.6 0 a3.3 3.3 0 1 0 -6.6 0zM827.69 493.42 a3.3 3.3 0 1 0 6.6 0 a3.3 3.3 0 1 0 -6.6 0zM856.27 509.92 a3.3 3.3 0 1 0 6.6 0 a3.3 3.3 0 1 0 -6.6 0zM856.27 542.92 a3.3 3.3 0 1 0 6.6 0 a3.3 3.3 0 1 0 -6.6 0zM799.11 509.92 a3.3 3.3 0 1 0 6.6 0 a3.3 3.3 0 1 0 -6.6 0zM884.85 97.42 a3.3 3.3 0 1 0 6.6 0 a3.3 3.3 0 1 0 -6.6 0zM913.43 113.92 a3.3 3.3 0 1 0 6.6 0 a3.3 3.3 0 1 0 -6.6 0zM913.43 146.92 a3.3 3.3 0 1 0 6.6 0 a3.3 3.3 0 1 0 -6.6 0zM942.01 163.42 a3.3 3.3 0 1 0 6.6 0 a3.3 3.3 0 1 0 -6.6 0zM942.01 196.42 a3.3 3.3 0 1 0 6.6 0 a3.3 3.3 0 1 0 -6.6 0zM913.43 212.92 a3.3 3.3 0 1 0 6.6 0 a3.3 3.3 0 1 0 -6.6 0zM913.43 245.92 a3.3 3.3 0 1 0 6.6 0 a3.3 3.3 0 1 0 -6.6 0zM884.85 262.42 a3.3 3.3 0 1 0 6.6 0 a3.3 3.3 0 1 0 -6.6 0zM856.27 245.92 a3.3 3.3 0 1 0 6.6 0 a3.3 3.3 0 1 0 -6.6 0zM942.01 262.42 a3.3 3.3 0 1 0 6.6 0 a3.3 3.3 0 1 0 -6.6 0zM942.01 295.42 a3.3 3.3 0 1 0 6.6 0 a3.3 3.3 0 1 0 -6.6 0zM913.43 311.92 a3.3 3.3 0 1 0 6.6 0 a3.3 3.3 0 1 0 -6.6 0zM884.85 295.42 a3.3 3.3 0 1 0 6.6 0 a3.3 3.3 0 1 0 -6.6 0zM913.43 344.92 a3.3 3.3 0 1 0 6.6 0 a3.3 3.3 0 1 0 -6.6 0zM942.01 361.42 a3.3 3.3 0 1 0 6.6 0 a3.3 3.3 0 1 0 -6.6 0zM942.01 394.42 a3.3 3.3 0 1 0 6.6 0 a3.3 3.3 0 1 0 -6.6 0zM913.43 410.92 a3.3 3.3 0 1 0 6.6 0 a3.3 3.3 0 1 0 -6.6 0zM913.43 542.92 a3.3 3.3 0 1 0 6.6 0 a3.3 3.3 0 1 0 -6.6 0zM942.01 559.42 a3.3 3.3 0 1 0 6.6 0 a3.3 3.3 0 1 0 -6.6 0zM942.01 592.42 a3.3 3.3 0 1 0 6.6 0 a3.3 3.3 0 1 0 -6.6 0zM913.43 608.92 a3.3 3.3 0 1 0 6.6 0 a3.3 3.3 0 1 0 -6.6 0zM884.85 592.42 a3.3 3.3 0 1 0 6.6 0 a3.3 3.3 0 1 0 -6.6 0zM884.85 559.42 a3.3 3.3 0 1 0 6.6 0 a3.3 3.3 0 1 0 -6.6 0zM942.01 -1.58 a3.3 3.3 0 1 0 6.6 0 a3.3 3.3 0 1 0 -6.6 0zM970.59 14.92 a3.3 3.3 0 1 0 6.6 0 a3.3 3.3 0 1 0 -6.6 0zM970.59 47.92 a3.3 3.3 0 1 0 6.6 0 a3.3 3.3 0 1 0 -6.6 0zM942.01 64.42 a3.3 3.3 0 1 0 6.6 0 a3.3 3.3 0 1 0 -6.6 0zM913.43 47.92 a3.3 3.3 0 1 0 6.6 0 a3.3 3.3 0 1 0 -6.6 0zM913.43 14.92 a3.3 3.3 0 1 0 6.6 0 a3.3 3.3 0 1 0 -6.6 0zM970.59 146.92 a3.3 3.3 0 1 0 6.6 0 a3.3 3.3 0 1 0 -6.6 0zM999.17 163.42 a3.3 3.3 0 1 0 6.6 0 a3.3 3.3 0 1 0 -6.6 0zM999.17 196.42 a3.3 3.3 0 1 0 6.6 0 a3.3 3.3 0 1 0 -6.6 0zM970.59 212.92 a3.3 3.3 0 1 0 6.6 0 a3.3 3.3 0 1 0 -6.6 0zM970.59 245.92 a3.3 3.3 0 1 0 6.6 0 a3.3 3.3 0 1 0 -6.6 0zM999.17 262.42 a3.3 3.3 0 1 0 6.6 0 a3.3 3.3 0 1 0 -6.6 0zM999.17 295.42 a3.3 3.3 0 1 0 6.6 0 a3.3 3.3 0 1 0 -6.6 0zM970.59 311.92 a3.3 3.3 0 1 0 6.6 0 a3.3 3.3 0 1 0 -6.6 0zM970.59 410.92 a3.3 3.3 0 1 0 6.6 0 a3.3 3.3 0 1 0 -6.6 0zM970.59 443.92 a3.3 3.3 0 1 0 6.6 0 a3.3 3.3 0 1 0 -6.6 0zM942.01 460.42 a3.3 3.3 0 1 0 6.6 0 a3.3 3.3 0 1 0 -6.6 0zM913.43 443.92 a3.3 3.3 0 1 0 6.6 0 a3.3 3.3 0 1 0 -6.6 0zM999.17 -1.58 a3.3 3.3 0 1 0 6.6 0 a3.3 3.3 0 1 0 -6.6 0zM1027.75 14.92 a3.3 3.3 0 1 0 6.6 0 a3.3 3.3 0 1 0 -6.6 0zM1027.75 47.92 a3.3 3.3 0 1 0 6.6 0 a3.3 3.3 0 1 0 -6.6 0zM999.17 64.42 a3.3 3.3 0 1 0 6.6 0 a3.3 3.3 0 1 0 -6.6 0zM1056.33 64.42 a3.3 3.3 0 1 0 6.6 0 a3.3 3.3 0 1 0 -6.6 0zM1056.33 97.42 a3.3 3.3 0 1 0 6.6 0 a3.3 3.3 0 1 0 -6.6 0zM1027.75 113.92 a3.3 3.3 0 1 0 6.6 0 a3.3 3.3 0 1 0 -6.6 0zM999.17 97.42 a3.3 3.3 0 1 0 6.6 0 a3.3 3.3 0 1 0 -6.6 0zM1027.75 146.92 a3.3 3.3 0 1 0 6.6 0 a3.3 3.3 0 1 0 -6.6 0zM1056.33 163.42 a3.3 3.3 0 1 0 6.6 0 a3.3 3.3 0 1 0 -6.6 0zM1056.33 196.42 a3.3 3.3 0 1 0 6.6 0 a3.3 3.3 0 1 0 -6.6 0zM1027.75 212.92 a3.3 3.3 0 1 0 6.6 0 a3.3 3.3 0 1 0 -6.6 0zM1027.75 245.92 a3.3 3.3 0 1 0 6.6 0 a3.3 3.3 0 1 0 -6.6 0zM1056.33 262.42 a3.3 3.3 0 1 0 6.6 0 a3.3 3.3 0 1 0 -6.6 0zM1056.33 295.42 a3.3 3.3 0 1 0 6.6 0 a3.3 3.3 0 1 0 -6.6 0zM1027.75 311.92 a3.3 3.3 0 1 0 6.6 0 a3.3 3.3 0 1 0 -6.6 0zM999.17 394.42 a3.3 3.3 0 1 0 6.6 0 a3.3 3.3 0 1 0 -6.6 0zM1027.75 410.92 a3.3 3.3 0 1 0 6.6 0 a3.3 3.3 0 1 0 -6.6 0zM1027.75 443.92 a3.3 3.3 0 1 0 6.6 0 a3.3 3.3 0 1 0 -6.6 0zM999.17 460.42 a3.3 3.3 0 1 0 6.6 0 a3.3 3.3 0 1 0 -6.6 0zM999.17 493.42 a3.3 3.3 0 1 0 6.6 0 a3.3 3.3 0 1 0 -6.6 0zM1027.75 509.92 a3.3 3.3 0 1 0 6.6 0 a3.3 3.3 0 1 0 -6.6 0zM1027.75 542.92 a3.3 3.3 0 1 0 6.6 0 a3.3 3.3 0 1 0 -6.6 0zM999.17 559.42 a3.3 3.3 0 1 0 6.6 0 a3.3 3.3 0 1 0 -6.6 0zM970.59 542.92 a3.3 3.3 0 1 0 6.6 0 a3.3 3.3 0 1 0 -6.6 0zM970.59 509.92 a3.3 3.3 0 1 0 6.6 0 a3.3 3.3 0 1 0 -6.6 0zM1084.91 113.92 a3.3 3.3 0 1 0 6.6 0 a3.3 3.3 0 1 0 -6.6 0zM1084.91 146.92 a3.3 3.3 0 1 0 6.6 0 a3.3 3.3 0 1 0 -6.6 0zM1113.49 163.42 a3.3 3.3 0 1 0 6.6 0 a3.3 3.3 0 1 0 -6.6 0zM1113.49 196.42 a3.3 3.3 0 1 0 6.6 0 a3.3 3.3 0 1 0 -6.6 0zM1084.91 212.92 a3.3 3.3 0 1 0 6.6 0 a3.3 3.3 0 1 0 -6.6 0zM1084.91 245.92 a3.3 3.3 0 1 0 6.6 0 a3.3 3.3 0 1 0 -6.6 0zM1084.91 311.92 a3.3 3.3 0 1 0 6.6 0 a3.3 3.3 0 1 0 -6.6 0zM1084.91 344.92 a3.3 3.3 0 1 0 6.6 0 a3.3 3.3 0 1 0 -6.6 0zM1056.33 361.42 a3.3 3.3 0 1 0 6.6 0 a3.3 3.3 0 1 0 -6.6 0zM1027.75 344.92 a3.3 3.3 0 1 0 6.6 0 a3.3 3.3 0 1 0 -6.6 0zM1113.49 -1.58 a3.3 3.3 0 1 0 6.6 0 a3.3 3.3 0 1 0 -6.6 0zM1142.07 14.92 a3.3 3.3 0 1 0 6.6 0 a3.3 3.3 0 1 0 -6.6 0zM1142.07 47.92 a3.3 3.3 0 1 0 6.6 0 a3.3 3.3 0 1 0 -6.6 0zM1113.49 64.42 a3.3 3.3 0 1 0 6.6 0 a3.3 3.3 0 1 0 -6.6 0zM1084.91 47.92 a3.3 3.3 0 1 0 6.6 0 a3.3 3.3 0 1 0 -6.6 0zM1084.91 14.92 a3.3 3.3 0 1 0 6.6 0 a3.3 3.3 0 1 0 -6.6 0zM1142.07 146.92 a3.3 3.3 0 1 0 6.6 0 a3.3 3.3 0 1 0 -6.6 0zM1170.65 163.42 a3.3 3.3 0 1 0 6.6 0 a3.3 3.3 0 1 0 -6.6 0zM1170.65 196.42 a3.3 3.3 0 1 0 6.6 0 a3.3 3.3 0 1 0 -6.6 0zM1142.07 212.92 a3.3 3.3 0 1 0 6.6 0 a3.3 3.3 0 1 0 -6.6 0zM1142.07 245.92 a3.3 3.3 0 1 0 6.6 0 a3.3 3.3 0 1 0 -6.6 0zM1170.65 262.42 a3.3 3.3 0 1 0 6.6 0 a3.3 3.3 0 1 0 -6.6 0zM1170.65 295.42 a3.3 3.3 0 1 0 6.6 0 a3.3 3.3 0 1 0 -6.6 0zM1142.07 311.92 a3.3 3.3 0 1 0 6.6 0 a3.3 3.3 0 1 0 -6.6 0zM1113.49 295.42 a3.3 3.3 0 1 0 6.6 0 a3.3 3.3 0 1 0 -6.6 0zM1113.49 262.42 a3.3 3.3 0 1 0 6.6 0 a3.3 3.3 0 1 0 -6.6 0zM1142.07 344.92 a3.3 3.3 0 1 0 6.6 0 a3.3 3.3 0 1 0 -6.6 0zM1113.49 361.42 a3.3 3.3 0 1 0 6.6 0 a3.3 3.3 0 1 0 -6.6 0zM1113.49 394.42 a3.3 3.3 0 1 0 6.6 0 a3.3 3.3 0 1 0 -6.6 0zM1142.07 410.92 a3.3 3.3 0 1 0 6.6 0 a3.3 3.3 0 1 0 -6.6 0zM1142.07 443.92 a3.3 3.3 0 1 0 6.6 0 a3.3 3.3 0 1 0 -6.6 0zM1113.49 460.42 a3.3 3.3 0 1 0 6.6 0 a3.3 3.3 0 1 0 -6.6 0zM1084.91 443.92 a3.3 3.3 0 1 0 6.6 0 a3.3 3.3 0 1 0 -6.6 0zM1084.91 410.92 a3.3 3.3 0 1 0 6.6 0 a3.3 3.3 0 1 0 -6.6 0zM1142.07 542.92 a3.3 3.3 0 1 0 6.6 0 a3.3 3.3 0 1 0 -6.6 0zM1170.65 559.42 a3.3 3.3 0 1 0 6.6 0 a3.3 3.3 0 1 0 -6.6 0zM1170.65 592.42 a3.3 3.3 0 1 0 6.6 0 a3.3 3.3 0 1 0 -6.6 0zM1142.07 608.92 a3.3 3.3 0 1 0 6.6 0 a3.3 3.3 0 1 0 -6.6 0zM1113.49 592.42 a3.3 3.3 0 1 0 6.6 0 a3.3 3.3 0 1 0 -6.6 0zM1113.49 559.42 a3.3 3.3 0 1 0 6.6 0 a3.3 3.3 0 1 0 -6.6 0zM1199.23 47.92 a3.3 3.3 0 1 0 6.6 0 a3.3 3.3 0 1 0 -6.6 0zM1227.81 64.42 a3.3 3.3 0 1 0 6.6 0 a3.3 3.3 0 1 0 -6.6 0zM1227.81 97.42 a3.3 3.3 0 1 0 6.6 0 a3.3 3.3 0 1 0 -6.6 0zM1199.23 113.92 a3.3 3.3 0 1 0 6.6 0 a3.3 3.3 0 1 0 -6.6 0zM1170.65 97.42 a3.3 3.3 0 1 0 6.6 0 a3.3 3.3 0 1 0 -6.6 0zM1170.65 64.42 a3.3 3.3 0 1 0 6.6 0 a3.3 3.3 0 1 0 -6.6 0zM1199.23 311.92 a3.3 3.3 0 1 0 6.6 0 a3.3 3.3 0 1 0 -6.6 0zM1199.23 344.92 a3.3 3.3 0 1 0 6.6 0 a3.3 3.3 0 1 0 -6.6 0zM1170.65 361.42 a3.3 3.3 0 1 0 6.6 0 a3.3 3.3 0 1 0 -6.6 0zM1227.81 361.42 a3.3 3.3 0 1 0 6.6 0 a3.3 3.3 0 1 0 -6.6 0zM1227.81 394.42 a3.3 3.3 0 1 0 6.6 0 a3.3 3.3 0 1 0 -6.6 0zM1199.23 410.92 a3.3 3.3 0 1 0 6.6 0 a3.3 3.3 0 1 0 -6.6 0zM1170.65 394.42 a3.3 3.3 0 1 0 6.6 0 a3.3 3.3 0 1 0 -6.6 0zM1199.23 443.92 a3.3 3.3 0 1 0 6.6 0 a3.3 3.3 0 1 0 -6.6 0zM1170.65 460.42 a3.3 3.3 0 1 0 6.6 0 a3.3 3.3 0 1 0 -6.6 0zM1170.65 493.42 a3.3 3.3 0 1 0 6.6 0 a3.3 3.3 0 1 0 -6.6 0zM1199.23 509.92 a3.3 3.3 0 1 0 6.6 0 a3.3 3.3 0 1 0 -6.6 0zM1199.23 542.92 a3.3 3.3 0 1 0 6.6 0 a3.3 3.3 0 1 0 -6.6 0zM1142.07 509.92 a3.3 3.3 0 1 0 6.6 0 a3.3 3.3 0 1 0 -6.6 0zM1227.81 559.42 a3.3 3.3 0 1 0 6.6 0 a3.3 3.3 0 1 0 -6.6 0zM1227.81 592.42 a3.3 3.3 0 1 0 6.6 0 a3.3 3.3 0 1 0 -6.6 0zM1199.23 608.92 a3.3 3.3 0 1 0 6.6 0 a3.3 3.3 0 1 0 -6.6 0zM1256.38 113.92 a3.3 3.3 0 1 0 6.6 0 a3.3 3.3 0 1 0 -6.6 0zM1256.38 146.92 a3.3 3.3 0 1 0 6.6 0 a3.3 3.3 0 1 0 -6.6 0zM1227.81 163.42 a3.3 3.3 0 1 0 6.6 0 a3.3 3.3 0 1 0 -6.6 0zM1199.23 146.92 a3.3 3.3 0 1 0 6.6 0 a3.3 3.3 0 1 0 -6.6 0zM1227.81 196.42 a3.3 3.3 0 1 0 6.6 0 a3.3 3.3 0 1 0 -6.6 0zM1256.38 212.92 a3.3 3.3 0 1 0 6.6 0 a3.3 3.3 0 1 0 -6.6 0zM1256.38 245.92 a3.3 3.3 0 1 0 6.6 0 a3.3 3.3 0 1 0 -6.6 0zM1227.81 262.42 a3.3 3.3 0 1 0 6.6 0 a3.3 3.3 0 1 0 -6.6 0zM1199.23 245.92 a3.3 3.3 0 1 0 6.6 0 a3.3 3.3 0 1 0 -6.6 0zM1199.23 212.92 a3.3 3.3 0 1 0 6.6 0 a3.3 3.3 0 1 0 -6.6 0zM1256.38 344.92 a3.3 3.3 0 1 0 6.6 0 a3.3 3.3 0 1 0 -6.6 0zM1284.96 361.42 a3.3 3.3 0 1 0 6.6 0 a3.3 3.3 0 1 0 -6.6 0zM1284.96 394.42 a3.3 3.3 0 1 0 6.6 0 a3.3 3.3 0 1 0 -6.6 0zM1256.38 410.92 a3.3 3.3 0 1 0 6.6 0 a3.3 3.3 0 1 0 -6.6 0zM1256.38 542.92 a3.3 3.3 0 1 0 6.6 0 a3.3 3.3 0 1 0 -6.6 0zM1284.96 559.42 a3.3 3.3 0 1 0 6.6 0 a3.3 3.3 0 1 0 -6.6 0zM1284.96 592.42 a3.3 3.3 0 1 0 6.6 0 a3.3 3.3 0 1 0 -6.6 0zM1256.38 608.92 a3.3 3.3 0 1 0 6.6 0 a3.3 3.3 0 1 0 -6.6 0zM1313.54 146.92 a3.3 3.3 0 1 0 6.6 0 a3.3 3.3 0 1 0 -6.6 0zM1342.12 163.42 a3.3 3.3 0 1 0 6.6 0 a3.3 3.3 0 1 0 -6.6 0zM1342.12 196.42 a3.3 3.3 0 1 0 6.6 0 a3.3 3.3 0 1 0 -6.6 0zM1313.54 212.92 a3.3 3.3 0 1 0 6.6 0 a3.3 3.3 0 1 0 -6.6 0zM1284.96 196.42 a3.3 3.3 0 1 0 6.6 0 a3.3 3.3 0 1 0 -6.6 0zM1284.96 163.42 a3.3 3.3 0 1 0 6.6 0 a3.3 3.3 0 1 0 -6.6 0zM1313.54 245.92 a3.3 3.3 0 1 0 6.6 0 a3.3 3.3 0 1 0 -6.6 0zM1284.96 262.42 a3.3 3.3 0 1 0 6.6 0 a3.3 3.3 0 1 0 -6.6 0zM1342.12 262.42 a3.3 3.3 0 1 0 6.6 0 a3.3 3.3 0 1 0 -6.6 0zM1342.12 295.42 a3.3 3.3 0 1 0 6.6 0 a3.3 3.3 0 1 0 -6.6 0zM1313.54 311.92 a3.3 3.3 0 1 0 6.6 0 a3.3 3.3 0 1 0 -6.6 0zM1284.96 295.42 a3.3 3.3 0 1 0 6.6 0 a3.3 3.3 0 1 0 -6.6 0zM1313.54 344.92 a3.3 3.3 0 1 0 6.6 0 a3.3 3.3 0 1 0 -6.6 0zM1342.12 361.42 a3.3 3.3 0 1 0 6.6 0 a3.3 3.3 0 1 0 -6.6 0zM1342.12 394.42 a3.3 3.3 0 1 0 6.6 0 a3.3 3.3 0 1 0 -6.6 0zM1313.54 410.92 a3.3 3.3 0 1 0 6.6 0 a3.3 3.3 0 1 0 -6.6 0zM1313.54 443.92 a3.3 3.3 0 1 0 6.6 0 a3.3 3.3 0 1 0 -6.6 0zM1284.96 460.42 a3.3 3.3 0 1 0 6.6 0 a3.3 3.3 0 1 0 -6.6 0zM1256.38 443.92 a3.3 3.3 0 1 0 6.6 0 a3.3 3.3 0 1 0 -6.6 0zM1342.12 -1.58 a3.3 3.3 0 1 0 6.6 0 a3.3 3.3 0 1 0 -6.6 0zM1370.7 14.92 a3.3 3.3 0 1 0 6.6 0 a3.3 3.3 0 1 0 -6.6 0zM1370.7 47.92 a3.3 3.3 0 1 0 6.6 0 a3.3 3.3 0 1 0 -6.6 0zM1342.12 64.42 a3.3 3.3 0 1 0 6.6 0 a3.3 3.3 0 1 0 -6.6 0zM1313.54 47.92 a3.3 3.3 0 1 0 6.6 0 a3.3 3.3 0 1 0 -6.6 0zM1313.54 14.92 a3.3 3.3 0 1 0 6.6 0 a3.3 3.3 0 1 0 -6.6 0zM1399.28 64.42 a3.3 3.3 0 1 0 6.6 0 a3.3 3.3 0 1 0 -6.6 0zM1399.28 97.42 a3.3 3.3 0 1 0 6.6 0 a3.3 3.3 0 1 0 -6.6 0zM1370.7 113.92 a3.3 3.3 0 1 0 6.6 0 a3.3 3.3 0 1 0 -6.6 0zM1342.12 97.42 a3.3 3.3 0 1 0 6.6 0 a3.3 3.3 0 1 0 -6.6 0zM1370.7 311.92 a3.3 3.3 0 1 0 6.6 0 a3.3 3.3 0 1 0 -6.6 0zM1370.7 344.92 a3.3 3.3 0 1 0 6.6 0 a3.3 3.3 0 1 0 -6.6 0zM1370.7 410.92 a3.3 3.3 0 1 0 6.6 0 a3.3 3.3 0 1 0 -6.6 0zM1370.7 443.92 a3.3 3.3 0 1 0 6.6 0 a3.3 3.3 0 1 0 -6.6 0zM1342.12 460.42 a3.3 3.3 0 1 0 6.6 0 a3.3 3.3 0 1 0 -6.6 0zM1399.28 460.42 a3.3 3.3 0 1 0 6.6 0 a3.3 3.3 0 1 0 -6.6 0zM1399.28 493.42 a3.3 3.3 0 1 0 6.6 0 a3.3 3.3 0 1 0 -6.6 0zM1370.7 509.92 a3.3 3.3 0 1 0 6.6 0 a3.3 3.3 0 1 0 -6.6 0zM1342.12 493.42 a3.3 3.3 0 1 0 6.6 0 a3.3 3.3 0 1 0 -6.6 0zM1370.7 542.92 a3.3 3.3 0 1 0 6.6 0 a3.3 3.3 0 1 0 -6.6 0zM1342.12 559.42 a3.3 3.3 0 1 0 6.6 0 a3.3 3.3 0 1 0 -6.6 0zM1313.54 542.92 a3.3 3.3 0 1 0 6.6 0 a3.3 3.3 0 1 0 -6.6 0zM1313.54 509.92 a3.3 3.3 0 1 0 6.6 0 a3.3 3.3 0 1 0 -6.6 0zM1399.28 -1.58 a3.3 3.3 0 1 0 6.6 0 a3.3 3.3 0 1 0 -6.6 0zM1427.86 14.92 a3.3 3.3 0 1 0 6.6 0 a3.3 3.3 0 1 0 -6.6 0zM1427.86 47.92 a3.3 3.3 0 1 0 6.6 0 a3.3 3.3 0 1 0 -6.6 0zM1427.86 146.92 a3.3 3.3 0 1 0 6.6 0 a3.3 3.3 0 1 0 -6.6 0zM1456.44 163.42 a3.3 3.3 0 1 0 6.6 0 a3.3 3.3 0 1 0 -6.6 0zM1456.44 196.42 a3.3 3.3 0 1 0 6.6 0 a3.3 3.3 0 1 0 -6.6 0zM1427.86 212.92 a3.3 3.3 0 1 0 6.6 0 a3.3 3.3 0 1 0 -6.6 0zM1399.28 196.42 a3.3 3.3 0 1 0 6.6 0 a3.3 3.3 0 1 0 -6.6 0zM1399.28 163.42 a3.3 3.3 0 1 0 6.6 0 a3.3 3.3 0 1 0 -6.6 0zM1427.86 245.92 a3.3 3.3 0 1 0 6.6 0 a3.3 3.3 0 1 0 -6.6 0zM1399.28 262.42 a3.3 3.3 0 1 0 6.6 0 a3.3 3.3 0 1 0 -6.6 0zM1370.7 245.92 a3.3 3.3 0 1 0 6.6 0 a3.3 3.3 0 1 0 -6.6 0zM1370.7 212.92 a3.3 3.3 0 1 0 6.6 0 a3.3 3.3 0 1 0 -6.6 0zM1427.86 344.92 a3.3 3.3 0 1 0 6.6 0 a3.3 3.3 0 1 0 -6.6 0zM1456.44 361.42 a3.3 3.3 0 1 0 6.6 0 a3.3 3.3 0 1 0 -6.6 0zM1456.44 394.42 a3.3 3.3 0 1 0 6.6 0 a3.3 3.3 0 1 0 -6.6 0zM1427.86 410.92 a3.3 3.3 0 1 0 6.6 0 a3.3 3.3 0 1 0 -6.6 0zM1399.28 394.42 a3.3 3.3 0 1 0 6.6 0 a3.3 3.3 0 1 0 -6.6 0zM1399.28 361.42 a3.3 3.3 0 1 0 6.6 0 a3.3 3.3 0 1 0 -6.6 0zM1427.86 443.92 a3.3 3.3 0 1 0 6.6 0 a3.3 3.3 0 1 0 -6.6 0zM1456.44 460.42 a3.3 3.3 0 1 0 6.6 0 a3.3 3.3 0 1 0 -6.6 0zM1456.44 493.42 a3.3 3.3 0 1 0 6.6 0 a3.3 3.3 0 1 0 -6.6 0zM1427.86 509.92 a3.3 3.3 0 1 0 6.6 0 a3.3 3.3 0 1 0 -6.6 0zM1427.86 542.92 a3.3 3.3 0 1 0 6.6 0 a3.3 3.3 0 1 0 -6.6 0zM1399.28 559.42 a3.3 3.3 0 1 0 6.6 0 a3.3 3.3 0 1 0 -6.6 0zM1456.44 559.42 a3.3 3.3 0 1 0 6.6 0 a3.3 3.3 0 1 0 -6.6 0zM1456.44 592.42 a3.3 3.3 0 1 0 6.6 0 a3.3 3.3 0 1 0 -6.6 0zM1427.86 608.92 a3.3 3.3 0 1 0 6.6 0 a3.3 3.3 0 1 0 -6.6 0zM1399.28 592.42 a3.3 3.3 0 1 0 6.6 0 a3.3 3.3 0 1 0 -6.6 0zM1456.44 -1.58 a3.3 3.3 0 1 0 6.6 0 a3.3 3.3 0 1 0 -6.6 0zM1485.02 14.92 a3.3 3.3 0 1 0 6.6 0 a3.3 3.3 0 1 0 -6.6 0zM1485.02 47.92 a3.3 3.3 0 1 0 6.6 0 a3.3 3.3 0 1 0 -6.6 0zM1456.44 64.42 a3.3 3.3 0 1 0 6.6 0 a3.3 3.3 0 1 0 -6.6 0zM1513.6 64.42 a3.3 3.3 0 1 0 6.6 0 a3.3 3.3 0 1 0 -6.6 0zM1513.6 97.42 a3.3 3.3 0 1 0 6.6 0 a3.3 3.3 0 1 0 -6.6 0zM1485.02 113.92 a3.3 3.3 0 1 0 6.6 0 a3.3 3.3 0 1 0 -6.6 0zM1456.44 97.42 a3.3 3.3 0 1 0 6.6 0 a3.3 3.3 0 1 0 -6.6 0zM1485.02 146.92 a3.3 3.3 0 1 0 6.6 0 a3.3 3.3 0 1 0 -6.6 0zM1427.86 113.92 a3.3 3.3 0 1 0 6.6 0 a3.3 3.3 0 1 0 -6.6 0zM1456.44 295.42 a3.3 3.3 0 1 0 6.6 0 a3.3 3.3 0 1 0 -6.6 0zM1485.02 311.92 a3.3 3.3 0 1 0 6.6 0 a3.3 3.3 0 1 0 -6.6 0zM1485.02 344.92 a3.3 3.3 0 1 0 6.6 0 a3.3 3.3 0 1 0 -6.6 0zM1427.86 311.92 a3.3 3.3 0 1 0 6.6 0 a3.3 3.3 0 1 0 -6.6 0zM1485.02 410.92 a3.3 3.3 0 1 0 6.6 0 a3.3 3.3 0 1 0 -6.6 0zM1485.02 443.92 a3.3 3.3 0 1 0 6.6 0 a3.3 3.3 0 1 0 -6.6 0zM1485.02 509.92 a3.3 3.3 0 1 0 6.6 0 a3.3 3.3 0 1 0 -6.6 0zM1485.02 542.92 a3.3 3.3 0 1 0 6.6 0 a3.3 3.3 0 1 0 -6.6 0z" fill="#03305d"></path>
        <path d="M19.97 492.96L44.22 506.96L44.22 534.96L19.97 548.96L-4.28 534.96L-4.28 506.96zM92.72 114.96L116.97 128.96L116.97 156.96L92.72 170.96L68.47 156.96L68.47 128.96zM116.97 492.96L141.22 506.96L141.22 534.96L116.97 548.96L92.72 534.96L92.72 506.96zM165.47 -11.04L189.72 2.96L189.72 30.96L165.47 44.96L141.22 30.96L141.22 2.96zM189.72 114.96L213.97 128.96L213.97 156.96L189.72 170.96L165.47 156.96L165.47 128.96zM189.72 198.96L213.97 212.96L213.97 240.96L189.72 254.96L165.47 240.96L165.47 212.96zM165.47 240.96L189.72 254.96L189.72 282.96L165.47 296.96L141.22 282.96L141.22 254.96zM238.21 30.96L262.46 44.96L262.46 72.96L238.21 86.96L213.97 72.96L213.97 44.96zM213.97 72.96L238.21 86.96L238.21 114.96L213.97 128.96L189.72 114.96L189.72 86.96zM286.71 366.96L310.96 380.96L310.96 408.96L286.71 422.96L262.46 408.96L262.46 380.96zM286.71 450.96L310.96 464.96L310.96 492.96L286.71 506.96L262.46 492.96L262.46 464.96zM335.21 366.96L359.46 380.96L359.46 408.96L335.21 422.96L310.96 408.96L310.96 380.96zM383.71 114.96L407.96 128.96L407.96 156.96L383.71 170.96L359.46 156.96L359.46 128.96zM359.46 240.96L383.71 254.96L383.71 282.96L359.46 296.96L335.21 282.96L335.21 254.96zM383.71 282.96L407.96 296.96L407.96 324.96L383.71 338.96L359.46 324.96L359.46 296.96zM383.71 450.96L407.96 464.96L407.96 492.96L383.71 506.96L359.46 492.96L359.46 464.96zM407.96 72.96L432.21 86.96L432.21 114.96L407.96 128.96L383.71 114.96L383.71 86.96zM456.46 -11.04L480.71 2.96L480.71 30.96L456.46 44.96L432.21 30.96L432.21 2.96zM456.46 408.96L480.71 422.96L480.71 450.96L456.46 464.96L432.21 450.96L432.21 422.96zM480.71 534.96L504.96 548.96L504.96 576.96L480.71 590.96L456.46 576.96L456.46 548.96zM529.21 450.96L553.46 464.96L553.46 492.96L529.21 506.96L504.96 492.96L504.96 464.96zM553.46 -11.04L577.71 2.96L577.71 30.96L553.46 44.96L529.21 30.96L529.21 2.96zM626.21 114.96L650.45 128.96L650.45 156.96L626.21 170.96L601.96 156.96L601.96 128.96zM674.7 366.96L698.95 380.96L698.95 408.96L674.7 422.96L650.45 408.96L650.45 380.96zM650.45 492.96L674.7 506.96L674.7 534.96L650.45 548.96L626.21 534.96L626.21 506.96zM723.2 114.96L747.45 128.96L747.45 156.96L723.2 170.96L698.95 156.96L698.95 128.96zM820.2 30.96L844.45 44.96L844.45 72.96L820.2 86.96L795.95 72.96L795.95 44.96zM795.95 240.96L820.2 254.96L820.2 282.96L795.95 296.96L771.7 282.96L771.7 254.96zM820.2 534.96L844.45 548.96L844.45 576.96L820.2 590.96L795.95 576.96L795.95 548.96zM844.45 -11.04L868.7 2.96L868.7 30.96L844.45 44.96L820.2 30.96L820.2 2.96zM868.7 198.96L892.95 212.96L892.95 240.96L868.7 254.96L844.45 240.96L844.45 212.96zM917.2 114.96L941.45 128.96L941.45 156.96L917.2 170.96L892.95 156.96L892.95 128.96zM892.95 240.96L917.2 254.96L917.2 282.96L892.95 296.96L868.7 282.96L868.7 254.96zM917.2 282.96L941.45 296.96L941.45 324.96L917.2 338.96L892.95 324.96L892.95 296.96zM965.7 30.96L989.95 44.96L989.95 72.96L965.7 86.96L941.45 72.96L941.45 44.96zM941.45 156.96L965.7 170.96L965.7 198.96L941.45 212.96L917.2 198.96L917.2 170.96zM965.7 198.96L989.95 212.96L989.95 240.96L965.7 254.96L941.45 240.96L941.45 212.96zM941.45 492.96L965.7 506.96L965.7 534.96L941.45 548.96L917.2 534.96L917.2 506.96zM1014.2 114.96L1038.44 128.96L1038.44 156.96L1014.2 170.96L989.95 156.96L989.95 128.96zM1014.2 366.96L1038.44 380.96L1038.44 408.96L1014.2 422.96L989.95 408.96L989.95 380.96zM989.95 408.96L1014.2 422.96L1014.2 450.96L989.95 464.96L965.7 450.96L965.7 422.96zM1038.44 72.96L1062.69 86.96L1062.69 114.96L1038.44 128.96L1014.2 114.96L1014.2 86.96zM1111.19 30.96L1135.44 44.96L1135.44 72.96L1111.19 86.96L1086.94 72.96L1086.94 44.96zM1111.19 114.96L1135.44 128.96L1135.44 156.96L1111.19 170.96L1086.94 156.96L1086.94 128.96zM1111.19 198.96L1135.44 212.96L1135.44 240.96L1111.19 254.96L1086.94 240.96L1086.94 212.96zM1111.19 450.96L1135.44 464.96L1135.44 492.96L1111.19 506.96L1086.94 492.96L1086.94 464.96zM1135.44 -11.04L1159.69 2.96L1159.69 30.96L1135.44 44.96L1111.19 30.96L1111.19 2.96zM1135.44 240.96L1159.69 254.96L1159.69 282.96L1135.44 296.96L1111.19 282.96L1111.19 254.96zM1135.44 492.96L1159.69 506.96L1159.69 534.96L1135.44 548.96L1111.19 534.96L1111.19 506.96zM1183.94 324.96L1208.19 338.96L1208.19 366.96L1183.94 380.96L1159.69 366.96L1159.69 338.96zM1208.19 366.96L1232.44 380.96L1232.44 408.96L1208.19 422.96L1183.94 408.96L1183.94 380.96zM1208.19 534.96L1232.44 548.96L1232.44 576.96L1208.19 590.96L1183.94 576.96L1183.94 548.96zM1232.44 72.96L1256.69 86.96L1256.69 114.96L1232.44 128.96L1208.19 114.96L1208.19 86.96zM1256.69 114.96L1280.94 128.96L1280.94 156.96L1256.69 170.96L1232.44 156.96L1232.44 128.96zM1232.44 240.96L1256.69 254.96L1256.69 282.96L1232.44 296.96L1208.19 282.96L1208.19 254.96zM1280.94 240.96L1305.19 254.96L1305.19 282.96L1280.94 296.96L1256.69 282.96L1256.69 254.96zM1305.19 450.96L1329.44 464.96L1329.44 492.96L1305.19 506.96L1280.94 492.96L1280.94 464.96zM1377.94 -11.04L1402.19 2.96L1402.19 30.96L1377.94 44.96L1353.69 30.96L1353.69 2.96zM1402.19 114.96L1426.44 128.96L1426.44 156.96L1402.19 170.96L1377.94 156.96L1377.94 128.96zM1402.19 282.96L1426.44 296.96L1426.44 324.96L1402.19 338.96L1377.94 324.96L1377.94 296.96zM1450.68 282.96L1474.93 296.96L1474.93 324.96L1450.68 338.96L1426.44 324.96L1426.44 296.96zM1426.44 324.96L1450.68 338.96L1450.68 366.96L1426.44 380.96L1402.19 366.96L1402.19 338.96z" stroke="rgba(6, 80, 156, 0.93)" stroke-width="2"></path>
    </g>
    <defs>
        <mask id="SvgjsMask1103">
            <rect width="1440" height="560" fill="#ffffff"></rect>
        </mask>
    </defs>
</svg>