<svg xmlns="http://www.w3.org/2000/svg" viewBox="0 0 1440 320"><path fill="#ffffff" fill-opacity="1" d="M0,128L26.7,117.3C53.3,107,107,85,160,112C213.3,139,267,213,320,224C373.3,235,427,181,480,160C533.3,139,587,149,640,144C693.3,139,747,117,800,144C853.3,171,907,245,960,245.3C1013.3,245,1067,171,1120,170.7C1173.3,171,1227,245,1280,256C1333.3,267,1387,213,1413,186.7L1440,160L1440,320L1413.3,320C1386.7,320,1333,320,1280,320C1226.7,320,1173,320,1120,320C1066.7,320,1013,320,960,320C906.7,320,853,320,800,320C746.7,320,693,320,640,320C586.7,320,533,320,480,320C426.7,320,373,320,320,320C266.7,320,213,320,160,320C106.7,320,53,320,27,320L0,320Z"></path></svg>