<svg xmlns="http://www.w3.org/2000/svg" viewBox="0 0 1440 320"><path fill="#050111" fill-opacity="1" d="M0,160L26.7,144C53.3,128,107,96,160,90.7C213.3,85,267,107,320,133.3C373.3,160,427,192,480,192C533.3,192,587,160,640,176C693.3,192,747,256,800,261.3C853.3,267,907,213,960,170.7C1013.3,128,1067,96,1120,90.7C1173.3,85,1227,107,1280,128C1333.3,149,1387,171,1413,181.3L1440,192L1440,320L1413.3,320C1386.7,320,1333,320,1280,320C1226.7,320,1173,320,1120,320C1066.7,320,1013,320,960,320C906.7,320,853,320,800,320C746.7,320,693,320,640,320C586.7,320,533,320,480,320C426.7,320,373,320,320,320C266.7,320,213,320,160,320C106.7,320,53,320,27,320L0,320Z"></path></svg>